<?xml version="1.0" standalone="no"?><!DOCTYPE svg PUBLIC "-//W3C//DTD SVG 1.1//EN" "http://www.w3.org/Graphics/SVG/1.1/DTD/svg11.dtd"><svg t="1708486011646" class="icon" viewBox="0 0 1260 1024" version="1.1" xmlns="http://www.w3.org/2000/svg" p-id="7811" xmlns:xlink="http://www.w3.org/1999/xlink" width="246.09375" height="200"><path d="M662.323474 99.427033c17.010883 20.987964 105.530475 149.829648 167.549318 222.559047 2.79577-43.314747 5.749048-84.700019 27.603307-121.556932-5.709671 81.156085 61.428187 178.614266 87.023265 210.430917 41.424649 56.978581 108.838147 56.230417 98.560738-15.672063 56.545434 46.307402 60.758777 125.691521 5.906556 156.405615 61.428187 68.71294 57.451106 76.312709 89.897789 86.117592 19.964161 5.394655 30.399077 0 39.573928-6.890982 5.276524-4.016458 6.457835-16.538358-7.757277-25.988848-70.681792-46.74055-33.982388-143.41119-30.714093-143.883715 0 2.362623-10.553047 77.76966 28.745241 102.144049 92.260411 55.718516 97.930706 100.726476 88.047068 179.244299-3.662065 24.807537-37.801961 71.351202-82.534282 91.0791 5.906556-14.490752 9.45049-29.847799 10.51367-45.519861-12.285637 18.782849-57.805499 42.60596-91.669756 42.330321 14.096981-12.364391 26.461373-26.579504 36.778158-42.330321-7.954163-2.362623-15.632686 2.520131-20.791078 9.214228-5.709671 7.599769-34.533667 37.408191-88.007691 23.03557 20.082292-9.686753 23.350586-17.916555 27.485176-29.769044 2.638262-7.7179 1.141934-10.553047-6.733474-12.088753-103.128475-17.404653-124.825226-99.663296-223.267833-152.152893a286.546741 286.546741 0 0 0-34.021766-13.073178c-4.488983-1.693213-7.402884 0-8.11167 4.961507-3.150163 21.657374-13.270063 76.391463 39.573928 97.851951 33.194847 17.483407 118.721784 28.823995 152.704172 119.115555-61.034416-39.180158-72.808152-35.636224-98.521361-35.163699 38.825764 27.918323 55.718516 48.433763 68.634185 74.422611 13.939473 31.580388 33.312978 34.769929 54.025303 37.801961 39.573928 10.51367 53.39527-26.815766 55.049106-28.745241 23.389963 69.815497-7.99354 110.64949-53.39527 125.927783a321.119785 321.119785 0 0 1-98.442607 14.569506c-101.395885 5.827802-104.939819-106.751163-219.84203-85.7632 15.435801-14.175735 56.309171-52.765237 112.854604-12.521899-7.127245-14.215112-7.836032-32.289175-66.940972-46.701173 65.484022-20.987964 107.223688 10.631802 133.724437 21.893636 0.590656-0.472525-3.307672-63.1214-172.077677-104.191656-40.046453-8.032917-252.800615-46.701173-248.862911-202.122361 33.982388 69.894251 124.195193 86.15697 165.029186 35.360585 4.843376-6.182196 3.898327-9.45049-3.386425-14.293867-78.635955-56.387925-297.690444-117.658604-326.671948 14.293867-23.862488 108.798769 156.484368 294.225264 313.756278 295.760969-302.100673 77.139627-692.012152-278.001923-555.216305-530.330014C165.109554 142.820535 380.974503 195.74328 377.903094 183.89079c-2.835147-19.452259-48.551894-43.27537-89.937166-64.972121 31.462257 1.73259 91.591002 2.559508 159.083253 23.901866a389.990233 389.990233 0 0 1 154.082369 90.567198C628.262332 142.859912 519.542317 12.206883 436.81115 0.196885c50.953893-0.039377 171.683907 21.933013 225.512324 99.230148z" p-id="7812" fill="#1296db"></path></svg>